# xmcd
#
# Track frame offsets: 
#        182
#        20277
#        33310
#        44245
#        55560
#        67047
#        79950
#        90475
#        102017
#        115080
#        128127
#        137462
#        148650
#        162695
#        176732
#        189735
#        202357
#        214670
#        225185
#        236917
#
# Disc length: 3297 seconds
#
# Revision: 12
# Processed by: cddbd v1.5.2PL0 Copyright (c) Steve Scherf et al.
# Submitted via: ExactAudioCopy v1.1
#
DISCID=210cdf14
DTITLE=Various Artist - Dance 1 - Disk 1
DYEAR=1993
DGENRE=Pop
TTITLE0=Isley Brothers - Shout
TTITLE1=Booker T and The MG's - Green Onions
TTITLE2=Little Eva - The Locomotion
TTITLE3=Exciters - Tell Him
TTITLE4=Rufus Thomas - Walking the Dog
TTITLE5=Irma Thomas - Time is on my side
TTITLE6=Major Lance - Um Um Um Um Um Um
TTITLE7=Wilson Pickett - In the Midnight Hour
TTITLE8=Fontella Bass - Rescue Me
TTITLE9=Don Convay - See Saw
TTITLE10=James Brown - Papa's got a brand new bag
TTITLE11=Fontella Bass - Recovery
TTITLE12=Wilson Pickett - Mustang Sally
TTITLE13=Eddie Floyd - Knock On Wood
TTITLE14=Carla Thomas - B.A.B.Y.
TTITLE15=James Brown - I got you (I feel good)
TTITLE16=Otis Redding - (I can't get no) Satisfaction
TTITLE17=The Bar-Kays - Soul Finger
TTITLE18=Sam and Dave - Soul Man
TTITLE19=Arthur Conley - Sweet Soul Music
EXTD=
EXTT0=
EXTT1=
EXTT2=
EXTT3=
EXTT4=
EXTT5=
EXTT6=
EXTT7=
EXTT8=
EXTT9=
EXTT10=
EXTT11=
EXTT12=
EXTT13=
EXTT14=
EXTT15=
EXTT16=
EXTT17=
EXTT18=
EXTT19=
PLAYORDER=
